<svg width="180" height="73" viewBox="0 0 180 73" fill="none" xmlns="http://www.w3.org/2000/svg">
<path d="M112.813 42.4277L114.318 37.3828H79.22L88.7465 0.554871H77.2145L68.4991 32.2003C67.0829 37.3425 70.9268 42.4277 76.2301 42.4277H112.813Z" fill="#004F74"/>
<path d="M7.0195 42.9322L29.0808 11.1492L51.1421 42.9322H64.6797L37.059 3.16919C34.6535 -0.293832 29.5515 -0.2752 27.171 3.2053L0 42.9322H7.0195Z" fill="#004F74"/>
<path d="M128.357 1.05936H169.972L168.969 5.0953H136.88L134.875 12.1582H146.908C153.426 12.1582 180 13.6717 180 28.3019C180 42.9322 153.426 47.4727 121.337 43.4367L122.34 37.8873C126.184 38.2236 135.577 38.8963 142.396 38.8963C150.919 38.8963 167.967 36.3738 167.967 28.3019C167.967 20.2301 152.423 16.1941 123.343 18.2121L128.357 1.05936Z" fill="#004F74"/>
<path fill-rule="evenodd" clip-rule="evenodd" d="M133.608 57.9232C133.55 57.6249 133.321 57.3901 133.026 57.3269C132.73 57.2636 132.426 57.3841 132.253 57.6331L122.299 71.9406H124.135L126.95 67.895H133.994L134.772 71.9406H136.304L133.608 57.9232ZM133.704 66.3896H127.997L132.468 59.9634L133.704 66.3896Z" fill="#004F74"/>
<path fill-rule="evenodd" clip-rule="evenodd" d="M117.827 57.8148H111.742L107.811 71.9406H115.32C117.839 71.9406 119.343 71.1184 120.186 70.0021C121 68.9246 121.086 67.7157 121.086 67.1479C121.086 66.4579 120.823 65.619 120.12 64.956C119.881 64.7315 119.601 64.5352 119.277 64.3733C119.513 64.1677 119.724 63.9457 119.909 63.7225C120.265 63.2927 120.552 62.8259 120.752 62.3868C120.944 61.9645 121.086 61.5027 121.086 61.094C121.086 60.4833 121.053 59.626 120.565 58.9334C120.033 58.1798 119.12 57.8148 117.827 57.8148ZM118.754 62.7536C118.194 63.4293 117.508 63.8687 116.825 63.8687H111.619L112.882 59.3283H117.827C118.856 59.3283 119.197 59.6095 119.338 59.8096C119.523 60.0708 119.582 60.4748 119.582 61.094C119.582 61.1898 119.537 61.4217 119.384 61.7562C119.24 62.0737 119.024 62.4267 118.754 62.7536ZM116.825 65.3822H111.198L109.794 70.4271H115.32C117.495 70.4271 118.498 69.7358 118.988 69.0864C119.508 68.3982 119.582 67.5891 119.582 67.1479C119.582 66.8289 119.459 66.4066 119.091 66.0607C118.73 65.7197 118.055 65.3822 116.825 65.3822Z" fill="#004F74"/>
<path d="M153.372 58.067L150.24 69.4935L145.084 58.2544C144.954 57.9713 144.665 57.7973 144.356 57.8162C144.046 57.8351 143.78 58.0431 143.685 58.34L139.341 71.9406H140.92L144.527 60.6512L149.735 72.0055C149.867 72.2939 150.165 72.4685 150.479 72.4426C150.794 72.4167 151.059 72.1958 151.143 71.8896L154.933 58.067H153.372Z" fill="#004F74"/>
<path d="M158.662 67.9507L161.392 58.067H162.953L160.748 66.0504L163.488 63.7844L170.639 58.067H173.057L164.965 64.5363L169.873 71.9406H168.065L163.791 65.4926L160.043 68.5923L159.083 71.9406H157.518L158.662 67.9507Z" fill="#004F74"/>
</svg>
