<svg width="64" height="26" viewBox="0 0 64 26" fill="none" xmlns="http://www.w3.org/2000/svg">
<path d="M40.1114 14.9109L40.6462 13.1144H28.1671L31.5543 0H27.454L24.3552 11.2689C23.8517 13.1 25.2184 14.9109 27.104 14.9109H40.1114Z" fill="#00FAC7"/>
<path d="M2.49582 15.0905L10.3398 3.77263L18.1838 15.0905H22.9972L13.1765 0.930954C12.3212 -0.302222 10.5072 -0.295587 9.6608 0.943814L0 15.0905H2.49582Z" fill="#00FAC7"/>
<path d="M45.6379 0.179649H60.4345L60.078 1.61684H48.6685L47.9554 4.13193H52.234C54.5515 4.13193 64 4.67087 64 9.88069C64 15.0905 54.5515 16.7073 43.1421 15.2702L43.4986 13.294C44.8654 13.4138 48.205 13.6533 50.6295 13.6533C53.6602 13.6533 59.7214 12.7551 59.7214 9.88069C59.7214 7.00631 54.195 5.56912 43.8552 6.28771L45.6379 0.179649Z" fill="#00FAC7"/>
<path fill-rule="evenodd" clip-rule="evenodd" d="M47.505 20.4288C47.4846 20.3226 47.4031 20.239 47.2981 20.2164C47.1931 20.1939 47.0849 20.2368 47.0234 20.3255L43.4843 25.4203H44.1371L45.1378 23.9797H47.6423L47.9189 25.4203H48.4637L47.505 20.4288ZM47.5393 23.4436H45.5102L47.0998 21.1553L47.5393 23.4436Z" fill="#00FAC7"/>
<path fill-rule="evenodd" clip-rule="evenodd" d="M41.8942 20.3902H39.7304L38.3328 25.4204H41.0029C41.8985 25.4204 42.4331 25.1276 42.7329 24.7301C43.0223 24.3464 43.053 23.9159 43.053 23.7137C43.053 23.468 42.9595 23.1693 42.7093 22.9331C42.6246 22.8532 42.525 22.7833 42.4098 22.7257C42.4936 22.6524 42.5688 22.5734 42.6345 22.4939C42.7611 22.3409 42.8629 22.1746 42.934 22.0182C43.0024 21.8679 43.053 21.7034 43.053 21.5579C43.053 21.3404 43.0413 21.0351 42.8675 20.7885C42.6784 20.5202 42.3539 20.3902 41.8942 20.3902ZM42.2236 22.1489C42.0247 22.3895 41.7807 22.546 41.5377 22.546H39.6868L40.1361 20.9291H41.8942C42.2602 20.9291 42.3812 21.0293 42.4315 21.1005C42.497 21.1935 42.5182 21.3374 42.5182 21.5579C42.5182 21.592 42.502 21.6746 42.4478 21.7937C42.3964 21.9068 42.3199 22.0325 42.2236 22.1489ZM41.5377 23.0849H39.5371L39.0379 24.8814H41.0029C41.7759 24.8814 42.1327 24.6352 42.3071 24.404C42.4919 24.1589 42.5182 23.8708 42.5182 23.7137C42.5182 23.6001 42.4742 23.4497 42.3437 23.3265C42.2151 23.2051 41.975 23.0849 41.5377 23.0849Z" fill="#00FAC7"/>
<path d="M54.5325 20.48L53.4186 24.549L51.5856 20.5467C51.5394 20.4459 51.4365 20.3839 51.3265 20.3907C51.2165 20.3974 51.1219 20.4715 51.0882 20.5772L49.5434 25.4204H50.1051L51.3874 21.4002L53.2392 25.4435C53.2863 25.5462 53.392 25.6083 53.5038 25.5991C53.6157 25.5899 53.71 25.5112 53.7398 25.4022L55.0873 20.48H54.5325Z" fill="#00FAC7"/>
<path d="M56.4131 23.9996L57.3839 20.48H57.939L57.1548 23.3229L58.129 22.516L60.6718 20.48H61.5315L58.6544 22.7837L60.3995 25.4204H59.7566L58.2369 23.1242L56.9043 24.228L56.563 25.4204H56.0064L56.4131 23.9996Z" fill="#00FAC7"/>
</svg>
